<mxfile host="app.diagrams.net" modified="2023-02-06T09:05:52.557Z" agent="5.0 (Windows NT 10.0; Win64; x64) AppleWebKit/537.36 (KHTML, like Gecko) Chrome/109.0.0.0 Safari/537.36" etag="SL0j8AqHywdt0uXwLBmW" version="20.8.16" type="github">
  <diagram name="第 1 页" id="QcjsDPf29D6IuBX9PW6E">
    <mxGraphModel dx="1970" dy="670" grid="1" gridSize="10" guides="1" tooltips="1" connect="1" arrows="1" fold="1" page="1" pageScale="1" pageWidth="827" pageHeight="1169" math="0" shadow="0">
      <root>
        <mxCell id="0" />
        <mxCell id="1" parent="0" />
        <mxCell id="KqO1XoUJhTVogDRzArD_-4" style="edgeStyle=orthogonalEdgeStyle;rounded=0;orthogonalLoop=1;jettySize=auto;html=1;" edge="1" parent="1" source="KqO1XoUJhTVogDRzArD_-1" target="KqO1XoUJhTVogDRzArD_-3">
          <mxGeometry relative="1" as="geometry" />
        </mxCell>
        <mxCell id="KqO1XoUJhTVogDRzArD_-5" value="1.发送自己A公钥" style="edgeLabel;html=1;align=center;verticalAlign=middle;resizable=0;points=[];" vertex="1" connectable="0" parent="KqO1XoUJhTVogDRzArD_-4">
          <mxGeometry x="-0.175" y="1" relative="1" as="geometry">
            <mxPoint as="offset" />
          </mxGeometry>
        </mxCell>
        <mxCell id="KqO1XoUJhTVogDRzArD_-15" style="edgeStyle=orthogonalEdgeStyle;rounded=0;orthogonalLoop=1;jettySize=auto;html=1;exitX=1;exitY=0.25;exitDx=0;exitDy=0;entryX=0;entryY=0;entryDx=0;entryDy=0;" edge="1" parent="1" source="KqO1XoUJhTVogDRzArD_-1" target="KqO1XoUJhTVogDRzArD_-3">
          <mxGeometry relative="1" as="geometry" />
        </mxCell>
        <mxCell id="KqO1XoUJhTVogDRzArD_-16" value="3.通过AB公钥加密消息内容发送" style="edgeLabel;html=1;align=center;verticalAlign=middle;resizable=0;points=[];" vertex="1" connectable="0" parent="KqO1XoUJhTVogDRzArD_-15">
          <mxGeometry x="-0.3385" relative="1" as="geometry">
            <mxPoint x="23" as="offset" />
          </mxGeometry>
        </mxCell>
        <mxCell id="KqO1XoUJhTVogDRzArD_-1" value="A端：&lt;br&gt;非对称加密&lt;br&gt;设备私钥+公钥&lt;br&gt;根据B公钥+A私钥加密" style="rounded=0;whiteSpace=wrap;html=1;" vertex="1" parent="1">
          <mxGeometry x="-30" y="20" width="140" height="200" as="geometry" />
        </mxCell>
        <mxCell id="KqO1XoUJhTVogDRzArD_-11" style="edgeStyle=orthogonalEdgeStyle;rounded=0;orthogonalLoop=1;jettySize=auto;html=1;exitX=0;exitY=0.75;exitDx=0;exitDy=0;entryX=1;entryY=1;entryDx=0;entryDy=0;" edge="1" parent="1" source="KqO1XoUJhTVogDRzArD_-2" target="KqO1XoUJhTVogDRzArD_-3">
          <mxGeometry relative="1" as="geometry" />
        </mxCell>
        <mxCell id="KqO1XoUJhTVogDRzArD_-12" value="2.同意链接，发送B端公钥" style="edgeLabel;html=1;align=center;verticalAlign=middle;resizable=0;points=[];" vertex="1" connectable="0" parent="KqO1XoUJhTVogDRzArD_-11">
          <mxGeometry x="0.2344" y="-1" relative="1" as="geometry">
            <mxPoint as="offset" />
          </mxGeometry>
        </mxCell>
        <mxCell id="KqO1XoUJhTVogDRzArD_-2" value="B端：&lt;br&gt;非对称加密&lt;br style=&quot;border-color: var(--border-color);&quot;&gt;设备私钥+公钥.&lt;br&gt;根据A公钥+B私钥解密" style="rounded=0;whiteSpace=wrap;html=1;" vertex="1" parent="1">
          <mxGeometry x="700" y="20" width="140" height="200" as="geometry" />
        </mxCell>
        <mxCell id="KqO1XoUJhTVogDRzArD_-6" style="edgeStyle=orthogonalEdgeStyle;rounded=0;orthogonalLoop=1;jettySize=auto;html=1;entryX=0;entryY=0.5;entryDx=0;entryDy=0;" edge="1" parent="1" source="KqO1XoUJhTVogDRzArD_-3" target="KqO1XoUJhTVogDRzArD_-2">
          <mxGeometry relative="1" as="geometry" />
        </mxCell>
        <mxCell id="KqO1XoUJhTVogDRzArD_-7" value="1.转发给B端" style="edgeLabel;html=1;align=center;verticalAlign=middle;resizable=0;points=[];" vertex="1" connectable="0" parent="KqO1XoUJhTVogDRzArD_-6">
          <mxGeometry x="-0.2444" y="2" relative="1" as="geometry">
            <mxPoint as="offset" />
          </mxGeometry>
        </mxCell>
        <mxCell id="KqO1XoUJhTVogDRzArD_-13" style="edgeStyle=orthogonalEdgeStyle;rounded=0;orthogonalLoop=1;jettySize=auto;html=1;exitX=0;exitY=1;exitDx=0;exitDy=0;entryX=1;entryY=0.75;entryDx=0;entryDy=0;" edge="1" parent="1" source="KqO1XoUJhTVogDRzArD_-3" target="KqO1XoUJhTVogDRzArD_-1">
          <mxGeometry relative="1" as="geometry" />
        </mxCell>
        <mxCell id="KqO1XoUJhTVogDRzArD_-14" value="2.转发给A" style="edgeLabel;html=1;align=center;verticalAlign=middle;resizable=0;points=[];" vertex="1" connectable="0" parent="KqO1XoUJhTVogDRzArD_-13">
          <mxGeometry x="0.4373" y="-2" relative="1" as="geometry">
            <mxPoint as="offset" />
          </mxGeometry>
        </mxCell>
        <mxCell id="KqO1XoUJhTVogDRzArD_-17" style="edgeStyle=orthogonalEdgeStyle;rounded=0;orthogonalLoop=1;jettySize=auto;html=1;exitX=1;exitY=0;exitDx=0;exitDy=0;entryX=0;entryY=0.25;entryDx=0;entryDy=0;" edge="1" parent="1" source="KqO1XoUJhTVogDRzArD_-3" target="KqO1XoUJhTVogDRzArD_-2">
          <mxGeometry relative="1" as="geometry" />
        </mxCell>
        <mxCell id="KqO1XoUJhTVogDRzArD_-18" value="3.转发到B" style="edgeLabel;html=1;align=center;verticalAlign=middle;resizable=0;points=[];" vertex="1" connectable="0" parent="KqO1XoUJhTVogDRzArD_-17">
          <mxGeometry x="-0.2837" y="2" relative="1" as="geometry">
            <mxPoint as="offset" />
          </mxGeometry>
        </mxCell>
        <mxCell id="KqO1XoUJhTVogDRzArD_-3" value="服务端" style="ellipse;whiteSpace=wrap;html=1;aspect=fixed;" vertex="1" parent="1">
          <mxGeometry x="350" y="55" width="130" height="130" as="geometry" />
        </mxCell>
        <mxCell id="KqO1XoUJhTVogDRzArD_-21" value="传输消息结构：&lt;br style=&quot;font-size: 12px;&quot;&gt;&lt;div&gt;{&lt;/div&gt;&lt;div&gt;&amp;nbsp; &quot;fromAreaid&quot;:&quot;&quot;, //来源areaId&amp;nbsp; 暂不用字段50&lt;/div&gt;&lt;div&gt;&amp;nbsp; &quot;fromGroupid&quot;:&quot;&quot;, //来源groupId&amp;nbsp; 群组&lt;/div&gt;&lt;div&gt;&amp;nbsp; &quot;fromNumid&quot;:&quot;&quot;, //来源numId&lt;span style=&quot;white-space: pre;&quot;&gt;	&lt;/span&gt;人员&lt;/div&gt;&lt;div&gt;&amp;nbsp; &quot;insertTime&quot;:&quot;&quot;, //插入时间&lt;/div&gt;&lt;div&gt;&amp;nbsp; &quot;cursor&quot;:&quot;&quot;, //游标&lt;/div&gt;&lt;div&gt;&amp;nbsp; &quot;type&quot;:&quot;&quot;,&amp;nbsp; //消息种类枚举&lt;/div&gt;&lt;div&gt;&amp;nbsp; &quot;msg&quot;:&quot;&quot;,&amp;nbsp; //消息&lt;/div&gt;&lt;div&gt;&amp;nbsp; &quot;msgExt&quot;:{&lt;/div&gt;&lt;div&gt;&amp;nbsp; &amp;nbsp; &quot;richText&quot;:{ // 具体展示数据&lt;/div&gt;&lt;div&gt;&amp;nbsp; &amp;nbsp; &amp;nbsp; &amp;nbsp; &quot;type&quot;:&quot;0&quot;,&amp;nbsp; // 消息展示类型，0-纯文本消息，1-链接消息，2-按钮卡片消息，3-列表消息&lt;/div&gt;&lt;div&gt;&amp;nbsp; &amp;nbsp; &amp;nbsp; &amp;nbsp; &quot;content&quot;:{&lt;/div&gt;&lt;div&gt;&amp;nbsp; &amp;nbsp; &amp;nbsp; &amp;nbsp; &amp;nbsp; &amp;nbsp; &quot;title&quot;:&quot;我是标题&quot;, // 标题，也会用于消息列表中内容展示，若不写则消息列表中内容取用`msg`字段&lt;/div&gt;&lt;div&gt;&amp;nbsp; &amp;nbsp; &amp;nbsp; &amp;nbsp; &amp;nbsp; &amp;nbsp; &quot;info&quot;:&quot;我是内容&quot;, //文本内容，不写默认取最外层msg字段&lt;/div&gt;&lt;div&gt;&amp;nbsp; &amp;nbsp; &amp;nbsp; }&lt;/div&gt;&lt;div&gt;&amp;nbsp; &amp;nbsp; }&lt;/div&gt;&lt;div&gt;&amp;nbsp; }, //消息扩展&lt;/div&gt;&lt;div&gt;}&lt;/div&gt;" style="text;whiteSpace=wrap;html=1;strokeColor=default;fontSize=12;" vertex="1" parent="1">
          <mxGeometry x="10" y="230" width="790" height="300" as="geometry" />
        </mxCell>
        <mxCell id="KqO1XoUJhTVogDRzArD_-22" value="" style="rounded=0;whiteSpace=wrap;html=1;strokeColor=default;fontSize=12;fontColor=#FF4D17;fillColor=none;" vertex="1" parent="1">
          <mxGeometry x="150" y="110" width="480" height="100" as="geometry" />
        </mxCell>
        <mxCell id="KqO1XoUJhTVogDRzArD_-23" value="建立链接过程" style="text;html=1;align=center;verticalAlign=middle;resizable=0;points=[];autosize=1;strokeColor=none;fillColor=none;fontSize=12;fontColor=#FF4D17;" vertex="1" parent="1">
          <mxGeometry x="350" y="180" width="100" height="30" as="geometry" />
        </mxCell>
        <mxCell id="KqO1XoUJhTVogDRzArD_-24" value="" style="shape=image;verticalLabelPosition=bottom;labelBackgroundColor=default;verticalAlign=top;aspect=fixed;imageAspect=0;image=data:image/png,iVBORw0KGgoAAAANSUhEUgAABkoAAACwCAYAAABAbDJNAAAgAElEQVR4nOzdfXBc1YHn/d8VTiDsYLDV3YpJsjNJbLUsyUstsxOEJNuyh0lmYrCwzcvyPPMEEsfGs1TtzoSFKQwBnBinxgxhd6vmAeyYMZnUQ/FmR8bO1szDgo0lR8zuMOVIstWyMknmIfGouyWwnSWQgO7zx+2X2933rd/Ukvr7qUrF6Hafe+45555z+p57zjG6V68xFcC02abbHmjRqZ0vasgwgnzF4fudSuzdo1fjwb5fyncAAAAAAAAAAMD89O6Fc7r0sssrGmZDRUMDAAAAAAAAAACYQ+blQMm0GdHaO+/Tre2BJssAAAAAAAAAAIA6NS8HSvx89OJL9NGLLwn8dwAAAAAAAAAAMD8tePD+TTq480WdVJOu27ZZ4YFDUu96taT2IRn9/iN6brhwf5DpyGrdtaVTEYfPNfVs0bbusCTJNGOp8FNab9JDW6PWsVifvvHCiBWe2abbHsieN97/Hf3Vaz7fcYjDs0Pt2XBuvF8Pdg3oqSePasK2r8rSllYtXLRIw2/+T/3y/HlJ0m8tXKj2q39P599+W6dOvlluugIAAAAAAAAAgDlgwTceeUkyDCm1SlW0t0UHd+7Sc4ah6fZNerj3Jq0Ysg10yFra6rrV0oGduzSR/7mmHm3smtKBb+7JbvqeCT+k7vAJ7dj5UmaQY21kWK9MWIMbiwf2acfRuO1MYY/vNDnG4aqhF/XszkRq0GeXNXiTt/n8P/9kXO2Lfk/tV/+eht/8n5Kk9qt/L3MMAAAAAAAAAADUhwX5f4j1vZgd4Bg6rv6uzWpdIZ0cyn6mwYjr1RfialqzVQ/ZZo5IkiaSmlKnNjywVeG9e/Rq3D5IkVT/sWFJhjRxWrFks/XnFS2KJk/oqdcmCgY13L7jGQcfvzx/XsNv/k+1X/17mQESSTkzTAAAAAAAAAAAwPy34MH7t6h/7x69MhH8S+mZHRrYpx0746n/DkmSGowRPffIiDXrZNt2PRhKFh1+uXEIwj5YIjFIAgAAAAAAAABAPWroT4YUjmT/EF3envn3kjW96g6N6dRQ3rciIYWTJ3TgNWv0Y0lrs8KpQ9OR1VrbbqrBiOuVJ/cpP3xHQ6OKhTrVsyIVhtmmtT0+X/KIQ1DpwRIGSQAAAAAAAAAAqE8LuqcO6Ru2zdpjatFDD/RKym7EPmTbw0RSZkmubV/vkiTFYzElUoca4seUWL1dD91ohWnG+nLCd9JgjOjZvSHdtcX6nnXeYclr6MMrDkZcI7Gktrls5m7HAAkAAAAAAAAAAPXL6F69xpRSG7TbN0AHAAAAAAAAAACYRd69cE6XXnZ5RcNsqGhoAAAAAAAAAAAAcwgDJQAAAAAAAAAAoG5llt4CAAAAAAAAAACYzVh6CwAAAAAAAAAAoIIYKAEAAAAAAAAAAHWLgRIAAAAAAAAAAFC3GCgBAAAAAAAAAAB1i4ESAAAAAAAAAABQtxgoAQAAAAAAAAAAdWtBePEVtY4DAAAAAAAAAACAr59dOFfxMBckpt6peKD17N0qZBIAAAAAAAAAAKiOBbWOwHx06WWX1zoKAAAAAAAAAADMO9WYrMAeJQAAAAAAAAAAoG4xUAIAAAAAAAAAAOpWzQZK2EQeAAAAAAAAAADUGjNKAAAAAAAAAABA3WKgBAAAAAAAAAAA1K0FtY5AMRZdcYU+89nPSpL+6cc/1tvvvFPjGAEAAAAAAAAAgLmspIGShQsX6tZbbtHChQtz/n7+/Hk99/zzOn/+fEUil+8zn/mMelavtv7DNPUPb75ZlfMAAAAAAAAAAID6UNLSW04DItUYJDEMQ6FQSJJ02WWX6dOf/kzm2Kc//RlddtllkqRQKCTDMCp2XgAAAAAAAAAAUB+M7tVrzFK/nJ5ZIqnoQZLw4iuUmPJeOut3r75aPT09+sUvfqFQKKSPfvSjOcd//etfK5lM6sorr9TRo0dnxQyTdy+c06WXXR7481/a9p9KOs93n/yvJX2vVNOR1bprS7Nie/fo1bihaTOi67Zt1sqwodP/Y0CNa7PHAAAAAAAAAACohmKfwQdR1h4l6Vkk6X9X0kc+skDXdHRIkq688srM3+PxuCQpEonoox/9aObYNR0d+tHQj/Sb33xQ0XjA2ZI1veqeOqQdT41Ygyhrax0jd5cvXqz3f/We3vvVuzl/v+Rjl+rij12ic1NTNYoZAAAAAAAAAKDWSlp6y+78+fNV2ZPkgw8+1D+++aamp6czfzt85Af6m+99T3/zve/p8JEfZP4+PT2tf3zzTX3wwYcVj0e9mjYjWnvnfbq13Zpw1BA/pice2ZuZMRIJh5RIJByPlXuuSnv/vfcUufITuuRjl2b+dsnHLlXkyk/o/V+9V5VzAgAAAAAAAADmhqJmlNz9ta8VFfhj3/52UZ+3M01TPxwc1Kf+9af0qU9+SvGJuGKx0czxWGxUn/t3/06Rpoh+/ouf64eDgyWfayavy4l9Ga0vbftPBctq5f+t1OW66tV7776r+NmfK3LlJxT/xc9lSAqn/p0/ywQAAAAAAAAAUF/KWnoLs9O02abbHlivltQG9/H+7+iJo3GPv1v7jYQHDkm969WciOmn4ag+YxjSjffrwa4BPXlA2rQ1pP6dL0q3bNfGqCFFv6oHu2I6sCeplaljQ4bhfp7Iat21pVOR1N9Hv/+Inh1qz342da6nnjyqs2p3DEOSmnq2aFt3WJJkmjEdTJ3Xi32wxJDJIAkAAAAAAAAAQFKRAyWVnknhxTAMdVxzjT5x5SckSZGmiKLRlsyskmi0RZGmiCTpE1d+Qtd2dGjwjTdkmsUv3zST1+Ukf4aI04yRoLNI0oMUiwf2aUdqYCH7904l9u7Sc7bN2G9N7tKzQ9Znor0tOrhzl54zDNvgyS49N2xoOrI6E9bQC9+Sbr5P3Yl9mQGQlb7nj+i61dKBnbs0YRiabt+kh3tv0lVDL+rZnYncc6ndPa7xHm3smtKBb+7JDo74DJKkGaZkyJQpQ9VZ5AsAAAAAAAAAMNeUPaNk4cKFkiq/mfuCBRfp3159tRoastuoXL/ui/rc7/07SdZm7mkNDQ36t1dfrf/1D/9rTm7mXtGlt1a0KJo8oadem8gdQFjRohYjrJat92cGNSQpHmrK/DvW5z8zw5fL+RuMuF59Ia6mNVv1kG02iFsYrnEdSmpKndrwwFaF9+4JvC/KJR+7NLPclmkoswwXs0oAAAAAAAAAoL6VNVCycOFC3XrLLZKk555/vqKDJb/5zQd6Y3BQPT09+sUvfqFQKKSPfvSjOQMkv/71r5VMJnXllVfqjcHBOTlIMpPMhLWs1UTBYEjE8fOVlF52SwP7tGNnehmukOvn3eLaYMT13CMjqVkm2/VgKKl+nwGT9Mbt9oER+54lDJYAAAAAAAAAQP0qeaAkPUiSnlFy6y23VHyw5M1//Ef97J//WclkUpdddpm+8Pkv6Ld/+19Lkn72s3/W3/7d3+rChQsKhUKanJys2HlnWiWX3tLQqGK969Wz4qieG7aWwrpuTUKvvJb7d0lacfMm6fkXdbLcCwhy/mRIYdtMkyWtzQprKlAYOXFt6tF1kaN6dTiuV57cJ23brHBEUtw5KEm6+JJLCgZE0nuWXHzJJQyUAAAAAAAAAEAdK2mgJH+QxP63Sg6WmKapZDIpSbpw4YJ+8pN/ygyU/OQn/6QLFy5IUuYzc1Ull95qMEb07N6Q7tqyXQ/daKQ2Ox9WgxHP+btkbab+nGHIacOOBiOukVhS22ybuQfhdn7puPq7Nmvb17skSfFYTAmXcz315FHXuDbEjymxOvt3M9anbwx7L7917m3nAZn33n1X773LIAkAAAAAAAAA1DOje/WamuxrHV58hRJT7xT1nUVXXKHPfPazkqR/+vGP9fY7xX1/Jrx74ZwuvezywJ93GgQJMlCS/xkAAAAAAAAAAOa7Yp/BBzGnBkrmglIGSkrBQAkAAAAAAAAAoN5UY6CkrM3cUT4GPAAAAAAAAAAAqJ2GWp14Ps4mAQAAAAAAAAAAc0vNBkoAAAAAAAAAAABqjYESAAAAAAAAAABQtxgoAQAAAAAAAAAAdYvN3Ktg4R/tqnUUMAPO//fttY4CAAAAAAAAAKBMC969cK7WcQAAAAAAAAAAAKiJBZdednmt4zCvMPBUP8hrAAAAAAAAAJj7WHqrCliSqT4wyAgAAAAAAAAAM6saL7CzmTsAAAAAAAAAAKhbDJQAAAAAAAAAAIC6xUAJAAAAAAAAAACoWwyUAAAAAAAAAACAusVACQAAAAAAAAAAqFsMlAAAAAAAAAAAgLrFQAkAAAAAAAAAAKhbDJQAAAAAAAAAAIC6xUAJAAAAAAAAAACoWwtqHQHMjMsvX6hPLvm4FiwIluUffPCB3jr7Lzp37nyVYwYAAAAAAAAAQO0wUFJDhmHot3/7d/TTn/5EDQ0X6d/8mxVa3tKiUKhRkvTWz3+h8TPjGh4ZlmmaZZ3rk0uW6OcTE/rV++8H+vzHLr5Yn1yyhIESAAAAAAAAAMC8xtJbNWXqxvU3qK2tTf/n/3Gbfn/tWl155ZV677339d577+szn/60Pv/5P9C/v/VW/atLLy3rTAsWXBR4kESSfvX++1qw4KKizzMdWa0/uX+L1kbKG9iplun2TXrwztVqKnPgCQAAAAAAAAAwPzCjpMYuWrBAf/iFL0iSYrExHT12TL/85QVJ0sKFC9WzerWWLVumddev0wsvvFj2zJJKmTYjum7bZoUHdum5YaPW0QEAAAAAAAAAoCTMKJklTFMaOTWcGSSRpPPnz+vlw4d15swZfeqTn1J7W3sNYxhMQ/yYnnhkr16Nz+3Bk2kzorV33qdb22fHwBQAAAAAAAAAoDoYKJklDEPqvWG9fud3Pp3zd9M09frrx2WaUnNzc41iBwAAAAAAAADA/MTSWzVkmtLzz7+Q87cPPvyg4HPvnHtH//W//Rddeum/mqmolWw6slp3bQnp+DdfV+RPvqpobJ+eOBqXJDX1bNGd0TE99eRRnVW7bntgvVoMa+ZJvP87mc85hde/80UNGUbOf59UU2r5r0NSbzas0e8/klkObNpsyzmPJJmJZF74nYrYvvvskC1uN96vB7sGfOPc1LNF27rDVvhmTAdT8QUAAAAAAAAAzG4MlNTYh9Mf6sKFC7pw4ULBsSVLlmjBRblZ5PS52cgw4nplYEzdXcvV9NqEzqpJbdGQYgN7UgMOnUrs3aXn4kZmv5Nbk6XtdxLtbdHBnbv0nGFoun2THu69SSuGXtTJ1MCG+nZpRyrcFTffpw2Lre9NmxFdt1o6sHOXJmzfvWroRT27M5GzB8u0R5yfjfdoY9eUDnxzT3ZwhEESAAAAAAAAAJgTGCipsTU9PWpqatLTT/+13jn3Ts6xiy++RDeuv0EXLchm07cff3zWbOjua2hUsd5OtTUd1VktVzQ0pv4hSSta1GKE1bL1fq20fTweapJUOKvET6zPNntj6Lj6uzardYV0Ui2KJk/oqSFJqcMnT49pQ5f17wYjrldfiKtpzVY9ZJsN4sgrzkNJTalTGx7YqvDePXN+fxYAAAAAAAAAqCcMlNTYqdOn9fGPf1yrVq/Syy+/nDMI8tOf/kR9Lx/Shhs3zskJCg3GiE6NrVd3a5NG1CwN9GUGNMyEtZzVRA0vLL3slgb2acfOeGZZLzducW4w4nrukZHULJPtejCUVD8DJgAAAAAAAAAwJ7CZe4396EcnlUgktWzpUt1www1auHBh5thv/dZlamttn5ODJGknj52QoivVE5VipyasPw6NKhbqVM+K7OdW3LxJK1xnyixWuMn615LWZoXzjkaXt2f+vWRNr7pDYzo1VHieaTOi67qas1+MhBROntCB1yZcw87wiPN0ZLXWtptqMOJ65cl96k+GFI54JAoAAAAAAAAAYNZgRkmNffjhtA4cPKiNGzZo2dKlWrZ0qc6fPy9JmUGTeCKuN9/8R/3B7/9+LaPqqOXG+/XQjda/zcSAnjyQ94GJ04pps7qnDum51AyLBmNEz+4N6a4t2/XQjbYN2B1GhBrix3RgoFnbUktexWMxJfI+E1OLHnqg14qDbSP1Bo3o2b4W7UjF0TQT6h8Yk6KpL6aW6dr2dWstLnvYDUZcI7Gkttk2c3eLc0P8mBKrs383Y336Rgl7rQAAAAAAAAAAZp7RvXrNHNnwYm5498I5XXrZ5UV/76KLLtJVV12l5S3LFQo1yjSlRCKh0diofvSjk/rww2n9zu98Wj/72U9UyhYlbS1R/XxiQr96//1An//YxRfrE01NGhl12bNjFkhvqJ7ecB0AAAAAAAAAML+V+gzeCzNKZokPP/xQb775pt58803Xz/z0pz8pOfy3zp7VJ5d8XAsWBMvyDz74QG+dPVvy+QAAAAAAAAAAmAsYKKkT586d17lz52sdDQAAAAAAAAAAZhUGSjBnNRhxvfrUtySx7BYAAAAAAAAAoDQNtY4AAAAAAAAAAABArTBQAgAAAAAAAAAA6hYDJQAAAAAAAAAAoG4xUAIAAAAAAAAAAOoWAyUAAAAAAAAAAKBuMVACAAAAAAAAAADqFgMlAAAAAAAAAACgbi1498K5WscBAAAAAAAAAACgJhZcetnltY7DvPLuhXNi8AkAAAAAAAAAgLlhQa0jMB81Rj5e6ygAAAAAAAAAADDvTMb/peJhskcJyjI1NVXrKADArEY9Ccws7rmZQTrPDuRDdZG+swv5UR2k6+xBXlQG6Vg9pG1lkI6zFwMlAAAAAAAAAACgbjFQAgAAAAAAAAAA6hYDJQAAAAAAAAAAoG4xUAIAAAAAAAAAAOrWglpHAPPPdddvLPjbK4cP6Obbt3p+74Vn9lQrSgAAAAAAAAAAOGJGCeYU02zWhq/doFbTrHr4ZqhTX/nal7Qy5HwuM3qD7rm9U+EqxQUAnJhmSCtv/1NtiLrUTUXUY6WeoxJm4hzATKPvUH2k8exVz3lT7rWV2l6XE+Z8zg8A8FONeheotNnYv5jvmFGCmrhw/pyG/uENTZz9uQyjQU1Lrqx1lAAgsPb2NknS8PBIjWOCYpnRG/Tn1y+1/m2O68hjh3TKMLLHzWZtvPuLWvTG9/T0QLJW0QRqgrptdiAfqov0nV3Ij+ogXWcP8qIySMfqIW0rg3Qs32xIQwZKMGPsS2t95GOX6r3f/UOZX/gPkqSfnR7URW/9s/Thh7WKXgEjeUJPf/uEJMP3swDqxyc/+Ul1d3VLkt5555zeeuutGsfIHfVYLjN6g+7tmNRf/+UhJdKDI0Zu2kS6O7TMMMQQyexy1VVXSZJOnjxZ45h4m8v33Fyp2+ZyGgcxV/LByVzIm9mavtVIO/Kj9kwzpFV3/LFCg4/rYGzm8oF0nT0qkRdz6XqrpRrpOJN15GzOw9laX1QqzWYq7WdrOlajnFcrTWdLGrL0Fmrivas/r+mrr5P5sd+S+bHf0vTV1+nDjhtqHS0A8HTF5VfoC5//vBoaGtTQ0KAvfP7zuuLyK2odLQRgmiGt6likwSMD2UGS/M+EOnXD0nH98AxTk2eT5mXL1NXZqa7OTjUvW1br6MxL1G2zA/lQXaTv7EJ+VAfpOnuQF5VBOlYPaVsZpGP5ZlMaMqMEMya9mXvf/7Nf/3v5tZKkBS9+W5L0wU1f0/Tya3XRwPeLCjO9RMqy1EOv/GVU8o8nB/9GTw8kZYY6tflLn1Mo9fczh79dMBJqfaZRg6nw8sOSJDM5WWwyAJjD3jn3jvY9/XTZ4WTfwviBtC5br6TrooL6x/bf2UmoUW34WuF3c87jU4+l60Tf+KbqzMbxH+jRQ2OO4ezrl1bd8cdaNp5dsio9g2P/fvfBCa/r8Kqrw11f0pc7GlPpma37Xa8x3KxlGteZzj/TvcsKr980Q1q17nN6e/BxTUY/Jx7Hzw6f/NQntXbt2sx/r127Vu++9yu99f+V8CahS3nKvx+XTv699u8fUFxR1/vFNaw52neoXN3WrI13dyj5xtu6tsNa4i637+VWr0Wt7x0Z17J1VrqeOfxtHdD6zFJ5ruHMkTQOomL54JHWpwyj6PrT7R7Jr9dne95UKn2lwt8YUu61BW0nw11f0h1Lx/XXh6X1t/u318W04/WcH7np5VwnuX0vnU/p8v7Z5JB+ZKzQJx36N3/99JiWf8W5P3dg1NaGXP813dPxhk9/qDJI16Dxd3+GUCmVyIucuF7/Nf3na35UUrpl+tYl/haopWqk4z0db+TUu8X0QwrCyzuW38YefjSmlnsKy2w83OXSL20O3ify+U05E2nrmMYKdr+51SX7+hc73uduffNiw6l0PVxP/Qune6kSaVrJNCwXAyWYMfaltyrBvo78bnsn4e71Uqaxyz1ufS+kVZ3Sy489roRhWN9Zt16to/YHkM7n0pHHtTvV4LSu/1OtW1TRSwJQZ5aui+rIY4/rYMC6qJzvOtWZQVhhL9Lgdx/X00lbh/a7j+tgMvuQeWPycR0Y/LE6OpoV7k8oYRhqi35W44OHPDtO7tcRdq+rw1264Zq3dfgvn8n+qDXc47Yh+bgOqFGh0FK9Pfht7T6UfnD4Ra2MPaPjSUNtvanOZcxQazRw8qCKwuGw/ugLf6iGhuwE6IaGBv3RF/5Q3+/rUyKRCBxWkLY/pyymfzA7laVRj7KZc8567TssVkfjoHY/9nLOffZ6kO91SPsfe1zxlvX68+u/pnvPHLGFc61a+0njcpmhzuLrz1HrY/Z7JH/ZwoLzzOO88bu2oO1kXGG1LF2s8cEBJYyugvALf8O455HfA7H5nx9eZdelTko4/1aUQpLy+yeX6l6n/k1DWMsLPmu1CW2jh3Tgsanc5UmqPEhSSXM9Xb3vI/dnCJUeLCmXYYwVXG8p6Wb1Udz7NrNtOahKc0zHUGfep4L2Qzz6iJMOv1Eukk7ln9vrd05RcbG45flMledS77fMtebVJatizxTml2ffPHg4s7kengv9C6d7aTanaSkYKEFNNJz+oaZ/9/P64Kav5fytKC1R6422/kT2xhz9oQY7/ljRFmlEDsclGUZSxw8lFe6+XffaRvoDnWtUmaX9RmI/1rqO4qIMYG674vIrtGnTRl188cWSpPfff18vvXRA75x7p6Twxo/YOrD2+ivAC56u3x11+YJTneknul73LpWOPGbr7LdEtcxo1LLbv6ZrbR9NhsJSf0zj6zrUEh5QPNGs6NIfK9YnzyVR3a7jVMyjrk4k9bY+p3V3367G71oDHb5xS0pm8g31p+pxI3lCg+OfU0c0rNcbr9W6RX+v/X1FpA2q6vKFl2vdF9fpIx/5SMGxj3zkI1r3xXU6ePCgzp0/Fyi8IG1/Tln0KEuB+xFzqO9Q2bptSoMnYpIMKTGmM5NLg38vvTTeaExn1i1SMhNOUm9rqRrDeV+ZQ2kcRKXbGEel1J8pOfeIn1mYNxVLX79rC9pOqlnLGn+swVFJYYfw89trr3BjPi9AzPP88C67LnWST78ot3/i0r9x/GyAPlkVka7Z+LvdR17PEE7FAoQdUNXq9FLTTWXUITU0I22jpMD9kEaPdBx1aWPz+PclA8Yl9c6Q++8p7yuueLtY5P1m3csB+42l1kkzoK77FxUyc/e5PwZKMGPSS2/98pcX9D9+0Kf3ZOjD3/0DSdJF//D/qmHw5QqdaUrJSUmNzkfTy2Xoje9p92PZJRwAwM87597R3/7d3+n6deskSX/7d39Xk8Z7pixdtEiTktURt/WRzKTzFFvDSKr/jQ7dEA1rNNqhpeOD1pvHJfCqqw1jTAe/PZZ62+XPdE/jlAa/a72x7hY3hSblNP5kmldoVcdnZYSW6sv/+ZrsgWX/l+5ZOjPLZKDQufPntP+Z/RULr5S2360szcd+RL3VbbPVTORDSfVn6k3wuW4my7lXOxkb/6I6omGNaqn0xg+KeuPXPY/mnkrmh3u6LC4zlhbDGHPu38zCLc1I11KlniFUULXqnHLSbS7WIbOxj+JVxzu2sXmToGdLX7J2aVva/VbtOqlU9C/KN5vuczZzx4x54Zk9euGZPfrvLz2rX//qXTUMHMwcaxg4KH34YXEBjsY03vg53dBtGyJtuVYdGtdoInu8u8U6ZJrNWtkVkhob1Tj593q532qtItGlbmMqBefKhhXSqo7PFhdfAPPCW2+9pf6BfvUP9Outt4rfJ8FuaTS7xlOk+4vqaPyxYpm35BZl3p52qqe8v+vArU70MD74jPZ9d1zLvvRn2hA1HcORpNb1N6jVtI7HY+PS0mvVvVSpt3q8uV6HR11thjq1MmrKMJJ6ff/3NDi5WKFGn7glxnRG2TbDDHWqY+mUxsfO6Pgz/0W7H3s887/DZ0wlB/9Gjz5zYk79kISHYtt+r7IUNKw51neoZN3mzrteK9ocS+MgKpcPzmldUv1ZilmaNxVJX79r80nLkRN/n2knz8QclhB0a6/LyaM6yg8pYLoU2S/y6t8U3SezMUOd+srXvqSVIdP138UiXT3i4fMModL5Ua22taR0q3Q9P4Nmpo8SkEc6urax+Up5JuWhnHulOu1isPutnHNIpZXfatS5Uh33L1S5NJ0t9zkzSjBnWWvjSRvv/mPd22HfGMoaBTU0pgPfDWnzl/5M915vZDaNkqypfuk3h5Nnxh3fMi4415GotTbk9ZJpTmrwjR9LMzebD8AsMjwcZBcRf+OK6t67rbcm7BvbGckTevmNpfpyavqrUz3l9l23t8kMw6VO9BkIMJIntO+xpDbe/We6Z92PdeSxQznhSKkNA1PhGMkTGnz7T7Vu0d+rPyHPZbc8r2PUva42kic02Zk9v3nmiB6NGQXXaI+boaRe3/8DhWxtxpnD33adEo95xqM8OfEqS0HDmot9h0rVbU6C1GtFhzkH0ziIcvPBK61LqT9Lebt7NudN2enrc22eaSmlBu7/WB1v/0AHHdogt/baMJLe4ZYR51qqSH6UUHZd+0XKX+Mv9XmP/o1rf05JjY5P6cszuFtoh8gAACAASURBVJl7Wr2nq+d95PEMoRrKzwuH6y0p3Xzqplmu0un414dLDcfj94ZrG5t37qeLfyblxfX3VECVri8C32+edUlhuS+tTqpMvgdRL/2LaqZpNX+LBGV0r14z+4eP55B3L5xTY+TjtY7GjJmamtLixbnT3K67fmPB5145fCCz9JaU3dj9N//x/8753Ef+23+oQiwBoHac6sn0BmmZDdDmmdb1f6qOye/p6SI2jQcqxemeQ+WRzrMD+VBdpO/sUuv8yO/fzJf+HOk6exSTF6Sbu1qX6ZlSizyvl7StNtKxMibj/6JLL7u8omEyowQV98rhA45/Tw+OAADmL2tJqx9rkI3RAQDAPEH/pjpI19KQbgBQHQyUYFZgJgkAzDzTbNbGu7+oZXk/sM4c/nZJbyW1rv9TXb/M0JnD385M9670OQAAtUW9PruQH9Xn1L8pFvlUiHQtTSXSDQD81GP9KrH0VsWx9BYAwI56EphZ3HMzg3SeHciH6iJ9ZxfyozpI19mDvKgM0rF6SNvKIB0roxpLbzVUNDQAAAAAAAAAAIA5hIESAAAAAAAAAABQt1h6q8LqbektAAAAAAAAAABmSjWW3mIz9yqYmpqqdRQAAAAAAAAAAEAADJRUwcLLKzuaBQAAAAAAAAAApHOTiYqHyR4lAAAAAAAAAACgbjFQAgAAAAAAAAAA6hYDJQAAAAAAAAAAoG4xUAIAAAAAAAAAAOoWAyUAAAAAAAAAAKBuMVACAAAAAAAAAADqFgMlQJ0yzZBWf+VubWqdrnVUJM2++FSS2dqr+77SrYhpXVv6Wrff+5/n5fWi+sxwt7bcc4dWh2tTfkyzRZvu6VWbSfmVKlN/WWlauzwtRiXzfz7X/QBQa7Otjp1t8UFt1LofC2B2yH9O4vo52g7MoAW1jkA9Ms0W3XTvOi0efEZ7jydrHZ26k07/qGHINJM6sf9pHUtYY4ZmuFtb77hGYcOQJMUO79ZLpxoUWXmHvnptqCCs9HHXc7X26v7rl6XOe0aHdh/UiOE9Ppl/LvPMYX3r4Khn/AqvK9i5yuVWlr3i6fW9suPjkt72+OTnecnp7XONXppWXa/Ot49o19OjkhpKyju/Mul1XaWGWa5K5bvXPez/+Zm5NyrFNEPq2Xy7QoOPlpQHbRvuVmeyML2t8tuogcNS7/WLcuvBVHo1jx/xLTNOce18u8jvlXEveXG6dntZkLL3RTruXSEj+9nkoPbte11xo7Duyv/+TGjbcLd6l/nELy8t3e6P/OutxH3hF2Y5+Zyfl0Hawpcefcw1PM96v8j6Be5y2+Qi2l6POtuzD+dT13u1QX79Ndf+Dn36ksxkX3wm0N+f2f5+udz6K2Zrr7av8+4TuV1zJszGSZd2NxXO5Bs5bbdT2RlWJFCfxPX6PH73zLU+cfD2IPix+WC23ltzTaX7BZXpvxT2PZ3iklj1Fdc28Xij+7H8tqQaZaic+6+c3wul9OG96stKn8vpe996dH/Az86/emw2Y6BkBmU7UOMaG691bGa/ch8QOoVh/bfVIOw6nrQ6xHdsUHL3QQ2rVTfdcY2mjjyqvacaUp3lDWobOaiR4/u167gt3NRDxtERSYbLuVt7tb1jUt/5i4PZTm2Aii0calTih/sLG2uzxTV+Voc6qtHdj+olo0FtG+7W+o2tGqnSAzyvsuwfz+rcA27p7RifG1bpdOrHRmnp7VFWAuZxMpnuUIVKyru4T5l0u65ywixX06oORQ1DiTLC8LqHndK+1PSd7YxEv/Y+2q9SJ4Y2tSyVBg/r1OmkjJa7td52TzSt6rB+yB84FajOyoi0qFmTSi6Nqs08Fehe8LrPKt0RTP/IiB3erV2nsg8otq5Mas/r1mfsnfG2DXdr88Zk9sFVgO9Xm/2edoqf9YDnUe3NeeB4j0JHHi0Y5J068mj2OswW3bR5lRIBH8Lk8wtzwqPOHC72XAHbQq+y617vF1e/wJ1ptugmW5ucn5beeeBcZ3v34dz7QX797yD9tfz2q1769HO9Lz4T6O/PfH/fONVXXiAu/RXjVJ8ORd37RGaAtiw5KTW3RHQskZuv6TrEzLsWx7KT+lDBA8JS+1Wp65mY4fLjJUg/1r89KP7YXFcvbU+1Va9fUGr/xb3v6RoXjzYxbrgfM1XdMlTO/efdrgQ5b3F9eL/nRJU8l9v33Lov87kemwv41TeDDCOpY08/pm892ieKd41EWtTcOK4Tr8et/x4Z0InJpWppS39g3PrBJUkjMY1pkUKRwmDau6/R1BGvSjekno5FOvFyaQ+dpibjLkec42eVrb5MfIZj49KikO8UxlL5l2WveFb+HvBM77aomiff0PFMfAZ0Qku13Javxaa3/7HgKpV3TmXS/bpKD7NUZrhbvcvGNXDG9P+wF997ONdM3xtzgWm2aGWHNDZqpeHwgSMaa7xGK9tS+dShkuquppal0pnDOjHunh/OKnMveTHNFt20bmnBQwfjVJ/rYOJwLPvroZTvu8clpNVfKX/ZqkRysiB+Y0dy32YyEv3ac2Rczes2qM2cturKG6wfBDnXYYzqpaf7SxskCRxmJfM5WFvoxbF+LLJ+gbuC/HfIc6c88KyzPfLH63tefY8g/TWn9os+fRlmqC8+E+jv16a/Xy6v/op/n8i7fE6dGZc6unLaeNMMafkyaeCHZwqupdSy48rjd89c6xP71+vFH5vraHsqo3r9guL7L17HiqknvNpE+7Fql6Hy778Sfy+U0ocP8JyoYudy+Z6b+VyPzQXMKEFVFUxJG3xbncsmM1OH3Y5/5ztJrfrz1PIm19+r+zqs6cYTas1Z9sT+JpZ9CrtpnlHfX8S0PC+M7/ywUaHxWPbNISOp5NtSc2NEhjGq44Md6l0V0cjxpFVxjg/qpfyp0629Wr/oDe3zeoMt0qJmjWus+x5tX1YYV69p26FFUvT6e7X9+txpnkHjJ0nt0aVKnhnITuvOWy4m8cP9tjegW7Xpnuwxt+n9+dfgpph4OvOIj9tUTJ/0LtSoUFgy46Wlt9815qebJJmph5qZ5XOW3aH7OgqnUBbkXYDpp/ll0qscOcXP8Y1Gh3IedCmI/DAzD1IHH1Uyeo2a7ecpMsw9k+73sOT/wDo/fWcDr3pywu07qTeDTqSmXm/ueDuTx20b7tZ6eSx/1RZV8+S4jsclGdY9++KRqLav+4q2TjZKg8/kTvf2rD/Sn7EeAoy9HNdweFzrO1YpMvK6bzn2upes83YoOfi2uq5dljn33uNJ2xvKR6R1zvVF4TX71Nt519PTYZWV4r7vXn8F1rJB27+cml7vsrSXld6NGhs8JanBO34jMY2t60j9yGhRs95Qn8d12Je5Sue9UoMgmbfavmO71yL+YQZrF4KlXbltjGf9GC6vfoGHtqia9bZG49bbjF5tlF1OnV1E/gSu6/36ax7t11xRt33xmUB/vyb9/WMeoTr3wQdt5d27v+LVJwp0zZOv68T4PepMf0aS2rrUqXHtm2xU57LU54r+7RKwff6h0zet3z35U7rt5cc0QzIM93MXLD1axPKa+fXCod0HNRxZlenHjhgNjp/JbxO86vVSjwEFKtQvCN5/8TgWsJ7wahNr3V76tVNS9jlJWb8XfPqIzs8VnGKcrS9d6zW/cxXxvVLTEdXFQAmqxt6B22Vbu1Wa9D1uGKf04u5k7lR9tVoPzfY/mnqIZn1+0+SjejGxSr0db6vvL57OdqoapJG8MCIr7/CNd/jaO7T9WuvfiR/mjvKmH56NDR70rqTCjQqHlmlqcLd2HUzvkXG9Vo8+raPxiHq6pb7dj2aXo8gsNWON8Kd/AERW3qHNecuhuMXPXiHHDu/WXof1J3flNKpWZ7R5XVSHUlP6CpaXcknvIA/+vNLRi3t83NNt2Cu9E5NKNl6jlW2v66VTktq61BUyFFP2bZJS0tvtWH65lqwfNutTL8CNHHxMsq+3bzR45F3Io6zYPpNXJr2uayJAvjqF6RUXv7LSvvF2NZ95RntPNagtmk0//zALy23TyuLfJHRL39nAr54MIn58vw6F7lbnqoiGJ7uszvA+92Wz2qOFdVhmuYlFb2jf6/HMd/3qj4z0Q4C4pLj1YH555HXFE8HKsft91qjO0KB27e7Lq0eto271RalvGGcfWiVzlrAKqvz45F9vh1aHT2Ue0tjTyUwOBvzRk1RyMtXpV6NCtrKVuy5vas3j5KRCoZAk6wfK4slJKdXxz3bSbfkf9g/TP5+LTzu/tnCvyx4lXvWjGst/UxmFzHC3tq5bqrEjj1oPguXd9rrV2U0++VNSXe/RfziWcG+/5oq67ovPBPr7NenvS/2OYfr1wa0/uPdX0tz6REGveTg2rvXrutT2eup6UuV1QhtsgXiVHesj6T6JdZ796gvSPidbXH/3SKXVk05ly2zt1fZ7N0i7ffIs4lAv5KWnNXPH+TNe8S31GOCpjH5BKf0Xz76NT1wk7zaxVu2lXzvlWUertN8LCY90dG0fw+7Pibx+v3qfq7TvOYZFPVYzC07GP6x1HOaVZR+rdQxmkbw3XA0jqaOD4+rsCHjcIbyoEVL0y/eqy/bnRGNEGklqStdo/b1fUchjI6WJybcLnu+lpadXD/z1bh3LvM2c90MhPV0uwMMpMzloTeMzrOVPToxfo87UmrXHDvYrsuor2m57c8Yxvq8PaqzD6sBPyDt+2bVepbYN9+i+DmuzwIl0Ojt09CVpzD5Fc2RAJzpuV0ubNCyP9PZ4szZQOnpwi8/IKe90c03v4/3ac6RR96cfgCYHNXBmUcFbVcWkt/UwwOWYCt/sHo6Na71buZZc8y5uBCgrAcpkznWFA+SrQ5iGV1w87k2zNfXg/kBh+fML06ncet3DbtzTdxZ0NoqtB10MHziilntv13ZN6sR+986wGe5W59JxnTignPJivW00rjFdo95Vo9k3lXzqjzT7Wy6GRjU6vi5T33nls1d98eKIJE3qRH9q1kR8VGOTS3PO615fFJd+aek3fto23K313a06VuQ6sF7xsW/EKEn683vVq/w3w7yvN+eNttRDCmvjVz+TSiYkhXP/mr43rHS3fu1NjI4reYe1bruiizT28qBCN7Qo8vqoQosmNdYfl9dN6BSmfz4Hz0u/NsZ+vwdhrx+PllC/wFtk5R3a3CGd2P+oe9/MlgfxhHud7Vf/l1rXu/Ufjobd2685o8774jOB/v7M9/ddOcyuzO+De/VXMudw6RMFacvs15N+gaVTqTjlLcviWvekBkryZ1aaYf/22UgkPX/3uJYfr8xyKltB8yweoF7w+IxXvV7qMcBPqf2CUvovfn0brzZGknebWKP20redcqmjy/m9MOyVji7to7VEsXN96fX71SvPSv1eMelIPVZ9zCjBnGKfOm1nGEm99Gh6o6x7dF/jpE7sz76RkyO1tl96mnFokTQVi6up5XqFxgczbxAbRqrzbPuh0N59jTT4jP/bwYlJ158W6ZFhDT6jXbvTU/Mafa+9qWWpb/zSrIem6R9cpXNL70rFs6i4eKWbR3pL1pthu1IP26wGt1GjeQ+Ki7mOpkaPaww+EcBRbt75l5XAZdLGL1+dwvQrt05hWvfjUhmhZfrqn9t+pS67Q/ctG9R3Dpm68csdRd8LbvdwkG237OkbL2dX+TkqXa5z8tZs0U3rFll1plYVvKnkxzRb1LJUCi/Lvv0jSebS1NuUkVWuZce7vqigEee3Rt1Y5WSdNrWesh5SFPl9J+l6yLovupTcV+ba+vYltUZiGlu3LvtGlF1blzob39Yhj7dnc8RHNTZ5vUKRVoUWjet4PKnl6tDyNqlZ4+rLb1cDpE0l87labUxGGfULcmWWAXx0VKWmX0F/JmD+BK7rXfoPprlYPR3u7Vc9/1CdM33xmUB/f1b1933D9umvjKSXonPpEwVty7IDji3qCbksl1LKtQRpn43gv3tyyk9J2xpaL2F45ZlhjDrXC7ZQ3D6T3w/1qtdLPQYUqFC/IHj/xeNYgHrCq02cDe1lMe1U2b8XvNLYhVt9aUZ82nCXc5lh99+9Tt8LuvwW9djMmgU9TMxbI7HMZnhSdupf4OM+4UlS2wZrQ1wz3K3VrdbmbUf3PaMTmWVG8sMY0AnZwmiz3vI5PpJ6i3Zph1aHp1PxsTrT6Y0Wrf+ezGyA7Ck+mnoLyarUrbe4U98NNyo0+Yb6Ups4NbUszQwsm2ZIkXB2g6b2jevUPDmu03Hv+Jnhbm3Z0JL5XtOqjsz3CtO5RatXZoeym6Ottu9dr87G1AZaHuntxS8d/bjGxyPdPNM7T/vGdVo8OJD6MVRaenteY5Hl2jPvvK5Z7mXS67r88tW1nHvFxSXMdsV17OnHtGv3X2b+13fGVOKH+/Wtp/sVj4QCh5kptx73cNHpOxsUWw+6sMr1M9o3KHXesMpxo7fMvhaxUzl/69m8Ts3jgzqWsN7A67OH4VN/SErtPTCuvr/YncnnR/7isMaU2tTOo+xUrb7IY615K3Xe8ZXMuSTrrdEt+deT+fykmjtWpTYGDfb9oPGpiNSeD8m4Lb7r8uKXWfLIvvZ94XXYGUZSp89IzTd0qPntpOLp/+5YKp0ZdXg46h9mkHwOmnbFtIVOvOvH4uoXuEvPXjt0oHB6l1ceePdn3POn5Lrepf9wJjbq3X7Nhof0QdRzX3wm0N+vSX/flV959umv+PWJirrmVFw6l9o27rUr4rdLWrHts5T3u6fUejJ1Lem4WmlpLWHm93slSL3g9hmv+JZ6DPBVYr9gIrKqpP6L5zGfesKrTaxVe1lcO5VbR5f1e8EzjQP8nlVufen97MPjXEV+r6R0RNUxowRVYxijenF/SFvvuEfbr09vEDkuLQt6PKnTZyb1VdsGkvbPS6kpyanptcnu7N/NM4f1rVMNjmEcffkN2znP6NDu7BTdPUcadb9t6nnOlOdISItTG5H6TV20OnpHFLr3dm2/NhvXY4kGKW5NEUy/iZA4cybnTYHlN9yjr4ZS12F7w8srfob61Ze8Q9vvtRayzbku5afzGR3afUqS1eCOKZr3vdQDtbzv2dPb89r90tGHW3zSUyud0s0rvdNrLXeFnDdAKzW9XY+lNoG8377Xga1cO6WXW955XbMkzzLpel1++eoWpmf6l1ZWigkzXW4No8H1Hi46fWcBv3owzb5OtZm0ZuOkWWu7WtPAJ3RYJ5bdrs0bk4WbgDtsut2+8XZ1No7rkG1Pk4nXc8Nwrj+yncv26FJp/EjO20rpN4DWR1ulAx75XK36wkH8+H7tmuzNOZe1WXpSTvOg89MhyPeLiU8pcvYoyQs/fny/do12a+sd96grs9lqsmDJI6fPSVbdmA5rYnRc6rgms1m89d9LNfay88wKvzCD5HPQtAvaFu7a/Zeu6ehePyaLql/gIdyosLFMvakl5tJih3frxRHvtte9P+OeP6XW9Z79tXmgnvviM4H+fm36+4ZL3vv1wf36K+3RdT59ouDXnN6UuDkUc27LSqx7/Npnr989nvWk6XLCdLrulm6yxTXo7xW3esG+FKhr3eFV3r3ailne98fsVuq9WXL/xe+YV1y82sQatZfe6eBdR5fze8E7HZ3bR1MR9+dEfm2R2++FIr/3LZfloqnHasu4bPkqj2YRxVr2sV/q8kan16cgWW/fbu+YdJ3e7XccAOa7IPVgehrviSIexLdtuFudyWdyBgrnqvSDgPTmwACAYOiLo55QngEAmL/OTSZ06WWXVzRMeguoGtMMafVXcpf0uWndUiVTU4P9jgPAfFdqPdjUslShyUkFXaJ01i1XAgCoOvriAAAAQHAsvYWqsaaWTWrrvfeo13CY/utzfC6wNnxap2jeHPBipp4DKN9cvReLrQfN1l7df/2yoqffpjfK5P0IAKgf9dAXBwAAACqFpbcqjKW3AAAAAAAAAACoDpbeAgAAAAAAAAAAqCAGSgAAAAAAAAAAQN1ioAQAAAAAAAAAANQtBkoAAAAAAAAAAEDdWlDrCMxHv/n1r2sdBQAAAAAAAAAAEAAzSgAAAAAAAAAAQN1ioAQAAAAAAAAAANQtBkoAAAAAAAAAAEDdYqAEAAAAAAAAAADULQZKAAAAAAAAAABA3WKgBAAAAAAAAAAA1K2LLg7/9sO1jsR80viRX+sjF19S62hglps2I/r9bf9RX/qjVfr41OsaiRvVPV/7Jj20IaLR//VT/W/DqPr50+F/7v3jjmH7HS/6fHnXB2czXe5840O+ARUzbbbp3z+wSg2vn1K8zu+nabNNhpGodTQA1Dn6+9Xp7x/7h5+VHVY9svoJN6op9g/6yf8uLj/sZalpclLtW2dHf2M6slr/4U8/r4UlXNNsOgcAb7l10KiaNv6nirUtnuflecWs95tfv1/xZ/ALropcVNEA6927F7yPT7dv0o4bo5Ik00yof+8evVrjh5X1Ztps020PrFeLYRTkwXRkte7a0qlIqhIc/f4jem7YUFPPFm3rDheElT7ueq6c/I7p4M4XNWQYWrKmV91Th7TjqRFJped/+loWD+zTE0fjgb/ndn6n8Oxp4lRmna7xZMlXVHhtTvnkJz+/zFifvvHCSFnheoVZznV45aHbMa888TqfU76Xcv5yrreYMIot15UOYyZNmxFdt22zuqcOOZYrv+NBwl4ZzuaDvT6aCcWWC8c4Jwb05BOn1P4nX1V3KOkYRvo80eQJPfXkUU2UcH1B6w/JuQ1wvW898nDFzfepO2F93l6n2pmxPj38fMI1L+31rlP6peOaPhYe2JUTd6teCanfVi7yrzcnLVzay+n2TXq4d7FjvRQdO5S5Bq/zn1RToDJbap+qGm0ECnnlT/A8yM13zz6cx/fsxx3bO5f+mt9351pbM1vMZF98JtDfL1016tz8MpQf7oqb79MG5bbFTT1bdGd0rOS+g3UtqXbeoY8y3b5JD3clc8L37oPntuP2clVsvy7dvh7/5umSrkvKLUvTZptuu7HkoFABtD2VUWy/IL5mq2c75Pe8oJQwvfpSpT4TqPYzSd90cEh3vzY+tw6K6Lru8uJY6XvILS/K7btwr9fGglpHoJ5Mm226rSupJ7/5oiaM1MOELTcpMYMPq+YSt4c55YRh/bdV0exIPZBK58FJteu2LZ2a6tulJzIPe27SiqEXNXR0r3YctYWb6nCeGpLr7550hzid35Kk1P9HwiElEqW/7ZrtiI8pNlb8993Ov2RNp1oMQ+kqeNpsK0yTDT0aSXXyXa/RLPnSUud1z6cg90okHFK8/zsuPzpKC9ctzFKvI/0g0CkPvfLXK0/Oqsnz+uz57n2O0spXufmWll8Oi1HuvVEzTcsVVVKJ5hatMIcL08vveAD2Dtl0+ybt+Pr9ai3jAVPQOrqccpHfiZw2ImqXlEhK0dYmvRrPLSXpslNOFeRef1gdVfXt0o5Me5JqI2zX4Vp+A+Zhw/BL2jFsO2/7Jj3cKx18flhSkySHzrVjvZvU8T1WJ91qs7ZqbXyPXpkIlg7pH1Gj339EO2zl5q6ehP7qtbB7ezn8kg4uv08bbG3FkjWd1uCV7RqC8CqzXn0qv4d31WgjkMuvz+udBy06tXOXnjMM64HmLe0aemEkQJvq9T33dsGrv5ZW2D+ao21NkeZ6X3wm0N8vXTXq3Oxg/S49kfMwcbvCfVYZPHnshLq3dGptZNhqI8029XRJ/XtLHySxi41NqduWfgVx9KuTUg/cplL9Des7bbptW4/iTx7V2dTngvbrlrQ2SwN9+pERVptLnKfNNjUY7i/ilFKWne/98uqTfA3xY3rikWOqZiUwE+cork89/9ueaiu5X+DTDnk9LyglzGl59XUd2ssAzwROqr3qzyS9+3jO6T4RIG3LaU+DxKH0MD3aUM/8jajBcH7iwb1eW+xRMoMajBE999SxbMU4NKqYFisc/JkBytW0XNHQmPpfSz0pGjqu/mSzWlekPzBmVcaSZ/5ctbpTU33ujcm0GdF1XYvVf7AyHe58DUZcrz71LX3jkZd0qkJhTkdWa2N0TMdjtl89K1oUTZ7Q0UyaHFe/mtXWVOVr9M0nf1NJh6eBZYbrGKYXj/N55aFn/nrkSTHXV/L5S7zeoBzLYRGqcW/MhCWtzVKsT/1jzunld1yy7sm1d27SCtM/7RqGX9JDewa0uPemQJ8vSwXKRb6p2JjUtTIn7tNmRG1R6Xh/rMwIu9UfIS223XtWWXsp961zj/IbJA/zTZttuq23WTGP9iaIhvgx9Y+FFG0N1uFInzd/QKZh+CXbjx739vLk84cUC3WqZ0UqTbpUdluRX2bL7VNVo41AVpD8ccqD/Pvq5OkxaXFITaYZoE11/p5XuxCkL+N0X8/VtmZWmKG++Eygv1+mCte52TYz9+3ohvgx/VXfmKLpPs/EacWStjZxRYuiyTGNFNnNd3X6uPrVqY1rnBsk3zppg/XALaf9za9T88N06delB4Fip3wubkVLoEtDbdH2VEa5/YI0p3bIqW9TapiefakSnwnM1DNJ9z5esPJbrTa+KveQV17kyc1f99dCuddrixkltbSiRVFN6dSEavomVDUVTPkbmFJ3NDvt2O34k08ktObrvdZyHzferwe7BvTUk0d1Vu05y4DYR6rt09pMM6YD3zyttrwwnuwPKTw2mqlwG4y4ElNSNNSkBmNERwesTu3Q0biVP2Mn9Fz+0i7tm7Rh8Qk95fUGW9NyRTWm2OrteiiaG9cVN9+njVFDin5VD3alp647X1f+sidBZzTkf0+SzERSklzO32R1ygd2KbG8U4WLvtiFFI5Ikvs1ZrXr1vu9lqlxOR5xzyepMF3s1zdtRhReLLXceL8eujFvKrpfuG5LyXiF6ZDemXTwOV/lpPPE/Xwrbt5ckO8lv61X4vV65ZsVbsS1HJZ6L8wF6Qf8sYMTOhkZ04auHjUN2Zdm8D5esonTiiU3q3WFNDTsvtyJFYfc9J84/qre7l4TqI7+q6RzuWhuXK61d25QPZhFAQAADtVJREFUNJY77frO6JiefMKnS5g8qv6x7epO19eStGKlujWmp5IhdUcl04xo7bavOob/1JNHJdtU9+wyIk3u9/pEUlOh9epZcVTPDRdGybv8lpaHmZkYM/3GdKrD73Zev/aywRjRs30terh3q+5KhqSBfZWZ0p9XZgvinO5TeSinjUAZbPkzLe821e6q5c1KxI5b90oR+ZPzPS8e/TXJ+76eK+q2Lz4T6O+nzHx/35FX2zU0qlhvp8JNUkM8rlcGxtTdtVxNr0ltXc2KDbxo63c5ndde/juVGJjSyu6oS3pM6JWDJxTdslm3JoucPdG0XFGd0IFSyrZTG5kaBDpqbxtbb9JDW1PL7gRYSji/LB2wLeGVv2ynfZkv+73/9c5R/TQc1WcC1ifZGRaHpF73JVVzl+1M5U3fmKK9Vn929PuP6FndlFlmyO/eyq/DDu58USebenKv0aNO9SsfTn3tZ4dsaZBKm288dcwzT1BFPv2CtPx2yLN/WWKYBex93YhT5P2fCRT0Zyv8TNLvuUmgMPLSobAOej31Sfe2x+t3rXf8/Z5XFLbXf+XYLKXywpbcs6bvAl8MlNTIdGS17uptVqxv17xdzsF5mZLNkpK+xw1jRM/uTOZO1013PPbu0nPx7OdvTe7Ss/Eebeya0oFv7smmZ4P0o7wwmnq2+MY70v1VPZRa8zDefzzvmiK6Lq8z7RxISJFwVFMDj2jHC+lOY6/WntqjV1/4lmRfjz7VQUxPjcxNP+fr9Z6Sm5uuUmot3sXW8aG888swdNXNm62HicOGViy3BRZPKhHqzD4YXLFSK8OGRn2uMb20S7S3RQdTy2DYl09IL4vidjweWlzy9aVH319Nfb6pZ4vuTE1Vl2e4EV23Wjqwc1d2Gmp6uQePMM96lMujHucrmUeeLPE4n1O+l8KrXHpdr1++SdJVtziXQ/vanDvmyeBIjvQD/glJE9YP+bamo5qIBzxeAV7l/6RbHXX0nxzq6MLPLelxLheGMWV7UDGhs2pSWzSk2MAe/YvRpHZlO9lSqiP6Wvb7J0+PaUPvSq14LfXwJ1U3n9VNqfDjruGfberRXflthmGoQe73+kTq4f+OG+/Xg72FnX638iuppDzMzMRwWArEni5BHnJMR1aruzmp2LEJpZe+soeRZprFzcbxai8b0ktwLT6hp16bKKhzKnH+tII+lcckqVLbCJQuP3+87zMj58ft6Pcf0ROpNsOrjcucx+F7nrz6a3HD+76eA+q6Lz4T6O9Lqk1/v3gJJZK2B1dDx9XftVk9a6TFtoGJYOcNqTt8Qjt2vuSYHpI1i+XAQLPuzEsLX5GQwrI9lMtZ9774vWGuWm67V0ynuFtLkL0Sdx+Ayi9L00ab6xJeaY71R/5SXF71SerNbHvZCfbbJaTurjE9tXOXzq64STtuvF8Px/ps12v1G932cimow/IHZnzq1EwcHMtHk2Nf+6qhF/XsTuf921ADPv0Cybkd8upfni0xTLuCvm6JzwQ8w6wAr3QI0mY7pUNhHRTRdfJqe5zvtfzlkgvP7V3/uz6TiHi0oR7XhdmLgZIaaOrZoju7pP69u+b3BqF5b/U0ZB5aBTzuEF6LEVbL1vu10vbneKhJGkpqSp3a8MBWhT02ozqbnJIK91KSlH0odXzPI5n1am97IO+HSnoaY4BRYDMxYE2/M9LLnnSq22FN/Uw65D9I8rperzdbHd6mOnl6TBtc0jUzsv184YMsa6p6SDvSbwQkBnQ8ttg6fcT9GtM/FHKWi0n9IGldIZ0c8jnukU/FXt/Z104o1mU9lHzFI9wGI65XX4irac1WPWR7k8gvzLMR93zyKm+l8sqTs6r8+Qp4lEvP6/XJN69y6HqPzBP2N58bNKJTY+tz6gq/4wWbf3/9fm1U0DdSk0rEfcp/0PR3+ZxnuRjKDhqcla1+TSl8+8f2+lSqzuhe06STyZXqVqp82ZfscA0/YJthu9cn4tn9Q5p6tmjb1+/XhtQghWf5lX8e5ku/xe42EyPYW1EhrUzdp04bNRbs/5J6KzOIIO2llSZjiqlTG9ecLiiLpZ/fKrNp5fapgrYRKE2Q/Cm4zzLrwUsrbt6uB7usN4n92lS37/n9IHXty0RWet7Xc0Kd98VnAv392dHfDybbfqTL+o4buzT6/Uey9USg8ybVf2zY+sDEacWSzY5nO/tan/qjm7XhlnadLHEf9XS9Zt0LQZbHyl6j9ZLEmPqfl+1ecY57Q7wGMxg8y76l+KVHk9nljYZGNdq7WInM9SY1pWZriSGnW2siQB0WqM50SeMifmuitnzr9QDtUM7zgjLDdOpLlftMYKaeSeb38XwV0ca7tS1DwyXea371v0s77tmGlnBdqD0GSmbYipvv0wYd0jceGRF3SPHS057zf/Q2GHE990h6w87tejCUVP9el01rU2tWW8sNWFMDp05PaElrr8JjJzIb/zUYqYdZth8qV622Hlz5dtjiSZW/1ZT79VZKemTbCEe17eu2Hl70q3owmjq3bWNhq5Me0qnnJaky1+jKJZ+qFe50pEd3bbHyd8fOeFEPDV3zqd3rOkrP0wa3PIlU53z5Srtej/B8yuGT/RWL+qwzbbaptVmKRLNvz0qS2ZyeKdHueXzIMDLlwar/VirxZMAflbZZDtNNq0su/4G4lIsGI54ZNBiRtdmo34yAtAbbjJHrws7L7GTq8bzwGzTi2GYE/aEwcXSvHnrNeqvolra4kl7l94mEbx7mW7KmV92hMR18spwHtNnN3C1FhDPkPetlSWuzZ3tprRO/2GqH1VPw1lzJ7DNzjCr1qWagDq0Xlcifk88fUusD2QcNQfPH/j3PH+Yu/TXTXOzfP5qrgydlmjN98ZlAf798lezvD40q1uuyROaKleoOTemgvboYGtVorzKbBVdagxFPLcG1Xrcp4G68Pu2vp7w2Mt1Wz4p7xYV72XdcV6iqGgznvuErFQo/PYOnan1tVEaAer3odqiMML36UqU+E5jNzyQr0cbX4l5zzYvUZcyqvgt8sZn7DEq/1XHweYfFzeejodHMZq5StpMe+LhPeJK04mZr4+LpyGqtbbc27HzlyX3qT0+tLgjD2lwvE8YK6y3ko0PS2VNjSjR3am3ETMXHeoCZ3ojK+u+k/2Z4kvX2iG0Tv8yyJ07fLUiHNq3tiXher6ci0jU9NXLHzl2Z/x2ImYr3f0ffcNgw8Kpb1mvxwPHUev3+1xhd3p75d/rB3ynb2+Kuxz3yye/6ps2ImiLZNLrqlvXZDRq9wo2EFE6e0IHUpmdLWpszL2J4h+mRT17nq5CcPJmB85V8vR75ZviUw38ZdrlH5oMVLYpqTAe++Ujm2h/6Zp9iSm1m6ne8RNYUZNumgh7l37WOyudal3mXy5PHTkjRleqJBths1OWc3c22DQvzOIXv1mZ43evTkdX6k5vzF5tIKpnwKb//ZnlReWhtvBoqewP3clj7BEjdW7Zm2kTJKjd/0hPxbC+tBwzrFR07oVfjRmr5Eal7Q4+1IXeJ8stsqX2qktsIFMUrf4q5z6x9evzzx/N7Xlz6MmOnTxfVP5q16rkvPhPo70uqTX/f+TpHdHQgqWhvXtuVWV4mQLtawnk94xQ/pgMDSbVEg+1w5Nb++iloI82Itdzo6Zl47pDdCDqn/+in1LJfJYHqsHLKh1dfG7OHT53n1g559i9LDbOIvm7QZwLVfibpmQ6+3y2ujXdtW0q914ruMzn/Js7JC4/rmo6sDnSdmHnMKJlJkZAiRlQbU8uipAXdWGiuaTBG9OzekO7asl0P3Zje7GxM6Z0D/Y/HNRJLapttwzf756VU2hnWg5jE6uzfzVifvjFsOIbxysETtnPGdHCn1aHMTJmzTf/NyZumkBYH3OjK6mAdUviBzXqoOxtXp7dpC9MhpoM7h9VgxF2v1zfdU+voWxto5aZrMdLrrq4MW+e0L+UT5BpjatFDD/RKytvIy/Q+3qC4ez7J//raNmzXtlSc7W8qeYWbnq6ZftMuHovlvPnhHuaIe7n0Ol+JfPOkwufLl19epWDXGyTfgp4zfY/M2aVQbK5a3iyNHcr54Z5+g3bD8nZdJe/jGvbem8IuZ1+LxICe2mlbI9Wj/LvXUYZnHW3/nGe5nDitmDare+pQwYa9ftIb/0bDo+4PPxzCd2szJI97PX5MBxJbMnWW5F6v2/nlcX4eXnVLdkNP+x4eZqxPDz9v5UpOXqaW1XJ8a7sME0f36uHkppw20doPJa4GxV3by6tu2ZyaDZO9R9PLj9x5SzJzDUF4llmPPtWzPgMbJbURKI5P/gS9z3LbEY82xuN7Xorpr81F9dwXnwn09y216u87mTi6Vw+fWq27tmzXSlsamomBQBukVzJd086+1qfj0c3q9v+oJPdriPd/JyddPdvIIjeFnzYjajCK3/wuvRfLttQ9m9t/LLz3g9YnQWYWV5pr39D2HNSvzvTk2dfOTSs2c68d3zrPox3y7F+WEqZnX6qptGcCM/BM0i0dfBXZxru2PT7Pddz41f9u7fi03PPC67pqsuQhAjG6V6+pzZD9PPXuhXO69LLLax2NWWu6fZMe7kq6VpZ+xwEAAACUhr446tGKm+/TxqhR0jJnc/GeWGHb+BjVNRfLBwDMF9V4Bs/SW6iaaTOitXdmp89aa5Y3KxE7nZkS7HUcAAAAQGnoiwOWoRespcfm1NJ5JZp1S9TNI9SZADD/MaOkwphRkiu9kVLEcJ6G5nd8trM2akotk2IzX5dTA2YL7j0AAPzN9744UG3MGKi9Svb7yw2LOhMAZo9qPINnoKTCGCgBAAAAAAAAAKA6WHoLAAAAAAAAAACgghgoAQAAAAAAAAAAdYuBEgAAAAAAAAAAULcYKAEAAAAAAAAAAHWLgRIAAAAAAAAAAPD/t2cHAgAAAACC/K0HuTTaEiUAAAAAAMCWKAEAAAAAALZECQAAAAAAsCVKAAAAAACALVECAAAAAABsiRIAAAAAAGBLlAAAAAAAAFuiBAAAAAAA2BIlAAAAAADAligBAAAAAAC2RAkAAAAAALAlSgAAAAAAgC1RAgAAAAAAbIkSAAAAAABgKybckeNV5jhYAAAAAElFTkSuQmCC;" vertex="1" parent="1">
          <mxGeometry x="10" y="550" width="1610" height="176" as="geometry" />
        </mxCell>
      </root>
    </mxGraphModel>
  </diagram>
</mxfile>
